<?xml version="1.0" encoding="UTF-8" standalone="no"?>
<!-- Created with Inkscape (http://www.inkscape.org/) -->

<svg
   width="512"
   height="512"
   viewBox="0 0 512 512"
   version="1.1"
   id="svg1"
   inkscape:version="1.3 (0e150ed6c4, 2023-07-21)"
   sodipodi:docname="zepsute.svg"
   inkscape:export-filename="drukara.png"
   inkscape:export-xdpi="96"
   inkscape:export-ydpi="96"
   xmlns:inkscape="http://www.inkscape.org/namespaces/inkscape"
   xmlns:sodipodi="http://sodipodi.sourceforge.net/DTD/sodipodi-0.dtd"
   xmlns="http://www.w3.org/2000/svg"
   xmlns:svg="http://www.w3.org/2000/svg">
  <sodipodi:namedview
     id="namedview1"
     pagecolor="#505050"
     bordercolor="#ffffff"
     borderopacity="1"
     inkscape:showpageshadow="0"
     inkscape:pageopacity="0"
     inkscape:pagecheckerboard="1"
     inkscape:deskcolor="#505050"
     inkscape:document-units="px"
     inkscape:zoom="0.79394529"
     inkscape:cx="34.637147"
     inkscape:cy="266.39115"
     inkscape:window-width="1920"
     inkscape:window-height="1009"
     inkscape:window-x="-8"
     inkscape:window-y="-8"
     inkscape:window-maximized="1"
     inkscape:current-layer="layer1" />
  <defs
     id="defs1" />
  <g
     inkscape:label="Warstwa 1"
     inkscape:groupmode="layer"
     id="layer1">
    <g
       id="g2">
      <path
         id="rect1-4"
         style="fill:#00865a;fill-opacity:1;stroke-width:3.2913"
         d="M -369.37228 167.72063 C -368.5624 167.55574 -367.7232 167.46929 -366.8632 167.46929 L -147.65677 167.46855 C -140.77681 167.46855 -135.23779 173.00808 -135.23779 179.88802 L -135.23724 524.13399 C -135.23724 531.01395 -140.77484 536.55258 -147.65479 536.55258 L -257.25897 536.55314 L -269.88894 523.07836 L -265.68471 508.10726 L -267.10823 490.21072 L -303.77125 522.37725 L -307.72791 535.02298 L -308.56535 536.55317 L -366.86314 536.55371 C -373.7431 536.55371 -379.28212 531.01419 -379.28212 524.13424 L -379.28274 258.80369 L -375.6283 257.22757 L -370.70418 265.69276 L -365.31313 257.49884 L -379.282 247.46352 L -379.28267 179.88827 C -379.28267 173.86832 -375.04147 168.87484 -369.37228 167.72063 z "
         transform="matrix(-0.97914376,0.20316866,0.20316866,0.97914376,0,0)" />
      <rect
         style="fill:#ffffff;fill-opacity:1;stroke-width:3.2913"
         id="rect2-6"
         width="104.74734"
         height="26.32394"
         x="-356.91809"
         y="187.5999"
         ry="12.41871"
         transform="matrix(-0.97914376,0.20316866,0.20316866,0.97914376,0,0)" />
      <rect
         style="fill:#ffffff;fill-opacity:1;stroke-width:3.2913"
         id="rect2-1-5"
         width="74.887657"
         height="26.323933"
         x="-356.91809"
         y="219.31834"
         ry="9.6718731"
         transform="matrix(-0.97914376,0.20316866,0.20316866,0.97914376,0,0)" />
      <rect
         style="fill:#ffffff;fill-opacity:1;stroke-width:3.2913"
         id="rect2-1-1-7"
         width="146.62848"
         height="26.323946"
         x="-356.91809"
         y="251.0368"
         ry="12.41871"
         transform="matrix(-0.97914376,0.20316866,0.20316866,0.97914376,0,0)" />
      <rect
         style="fill:#ffffff;fill-opacity:1;stroke-width:3.2913"
         id="rect2-0-6"
         width="104.74734"
         height="26.32394"
         x="-356.91809"
         y="282.75528"
         ry="12.41871"
         transform="matrix(-0.97914376,0.20316866,0.20316866,0.97914376,0,0)" />
      <rect
         style="fill:#ffffff;fill-opacity:1;stroke-width:3.2913"
         id="rect2-1-6-7"
         width="74.887657"
         height="26.323933"
         x="-356.91809"
         y="314.47372"
         ry="9.6718731"
         transform="matrix(-0.97914376,0.20316866,0.20316866,0.97914376,0,0)" />
      <rect
         style="fill:#ffffff;fill-opacity:1;stroke-width:3.2913"
         id="rect2-1-1-5-6"
         width="146.62848"
         height="26.323946"
         x="-356.91809"
         y="346.19217"
         ry="12.41871"
         transform="matrix(-0.97914376,0.20316866,0.20316866,0.97914376,0,0)" />
      <rect
         style="fill:#ffffff;fill-opacity:1;stroke-width:3.2913"
         id="rect2-06-5"
         width="104.74734"
         height="26.32394"
         x="-356.91809"
         y="377.91064"
         ry="12.41871"
         transform="matrix(-0.97914376,0.20316866,0.20316866,0.97914376,0,0)" />
      <rect
         style="fill:#ffffff;fill-opacity:1;stroke-width:3.2913"
         id="rect2-1-0-7"
         width="74.887657"
         height="26.323933"
         x="-356.91809"
         y="409.62912"
         ry="9.6718731"
         transform="matrix(-0.97914376,0.20316866,0.20316866,0.97914376,0,0)" />
      <rect
         style="fill:#ffffff;fill-opacity:1;stroke-width:3.2913"
         id="rect2-1-1-52-8"
         width="146.62848"
         height="26.323946"
         x="-356.91809"
         y="441.34753"
         ry="12.41871"
         transform="matrix(-0.97914376,0.20316866,0.20316866,0.97914376,0,0)" />
    </g>
    <g
       id="g1"
       transform="matrix(0.98822741,0.1281149,-0.1281149,0.98822741,-14.217478,-39.603979)">
      <rect
         style="fill:#10b981;fill-opacity:1;stroke-width:3.77953"
         id="rect1"
         width="280.246"
         height="423.83273"
         x="115.877"
         y="39.045509"
         ry="14.260878" />
      <rect
         style="fill:#ffffff;fill-opacity:1;stroke-width:3.77953"
         id="rect2"
         width="120.28536"
         height="30.228783"
         x="141.55811"
         y="62.162418"
         ry="14.260878" />
      <rect
         style="fill:#ffffff;fill-opacity:1;stroke-width:3.77953"
         id="rect2-1"
         width="85.996346"
         height="30.228775"
         x="141.55811"
         y="98.585922"
         ry="11.10658" />
      <rect
         style="fill:#ffffff;fill-opacity:1;stroke-width:3.77953"
         id="rect2-1-1"
         width="168.37907"
         height="30.22879"
         x="141.55811"
         y="135.00943"
         ry="14.260878" />
      <rect
         style="fill:#ffffff;fill-opacity:1;stroke-width:3.77953"
         id="rect2-0"
         width="120.28536"
         height="30.228783"
         x="141.55811"
         y="171.43295"
         ry="14.260878" />
      <rect
         style="fill:#ffffff;fill-opacity:1;stroke-width:3.77953"
         id="rect2-1-6"
         width="85.996346"
         height="30.228775"
         x="141.55811"
         y="207.85646"
         ry="11.10658" />
      <rect
         style="fill:#ffffff;fill-opacity:1;stroke-width:3.77953"
         id="rect2-1-1-5"
         width="168.37907"
         height="30.22879"
         x="141.55811"
         y="244.27997"
         ry="14.260878" />
      <rect
         style="fill:#ffffff;fill-opacity:1;stroke-width:3.77953"
         id="rect2-06"
         width="120.28536"
         height="30.228783"
         x="141.55811"
         y="280.70349"
         ry="14.260878" />
      <rect
         style="fill:#ffffff;fill-opacity:1;stroke-width:3.77953"
         id="rect2-1-0"
         width="85.996346"
         height="30.228775"
         x="141.55811"
         y="317.12701"
         ry="11.10658" />
      <rect
         style="fill:#ffffff;fill-opacity:1;stroke-width:3.77953"
         id="rect2-1-1-52"
         width="168.37907"
         height="30.22879"
         x="141.55811"
         y="353.55051"
         ry="14.260878" />
    </g>
  </g>
</svg>
